<?xml version="1.0" standalone="no"?>
<!DOCTYPE svg PUBLIC "-//W3C//DTD SVG 20010904//EN"
 "http://www.w3.org/TR/2001/REC-SVG-20010904/DTD/svg10.dtd">
<svg version="1.0" xmlns="http://www.w3.org/2000/svg"
 width="1254.000000pt" height="1254.000000pt" viewBox="0 0 1254.000000 1254.000000"
 preserveAspectRatio="xMidYMid meet">

<g transform="translate(0.000000,1254.000000) scale(0.100000,-0.100000)"
fill="#000000" stroke="none">
<path d="M0 6270 l0 -6270 6270 0 6270 0 0 6270 0 6270 -6270 0 -6270 0 0
-6270z m6626 2506 c481 -83 917 -308 1259 -651 837 -837 935 -2206 225 -3151
-188 -249 -405 -449 -656 -602 -623 -381 -1396 -438 -2069 -151 -401 170 -754
463 -1017 844 -187 271 -345 678 -382 980 -4 28 -11 84 -16 125 -5 41 -10 154
-10 251 0 325 53 600 175 904 131 327 302 584 549 823 369 357 831 579 1336
641 112 14 498 6 606 -13z m-2711 -1383 c-29 -67 -83 -239 -110 -348 l-32
-130 -1324 -3 -1325 -2 -254 249 -255 250 1654 0 c1571 1 1653 0 1646 -16z
m7756 -234 l-254 -249 -1330 2 -1330 3 -23 102 c-12 56 -44 167 -71 247 l-49
146 1656 -1 1655 0 -254 -250z m-7941 -564 c-7 -74 -5 -353 3 -407 l7 -48
-913 0 -912 0 -253 248 c-139 136 -253 250 -252 255 0 4 523 6 1162 5 l1162
-3 -4 -50z m7400 47 c0 -5 -114 -120 -254 -255 l-254 -247 -917 0 c-782 0
-916 2 -912 14 11 28 18 324 10 404 -5 45 -7 85 -4 87 8 9 2331 5 2331 -3z
m-7350 -791 c0 -44 86 -346 136 -476 5 -13 -68 -15 -592 -15 l-597 0 -66 62
c-36 34 -154 149 -262 255 l-196 193 788 0 c773 0 789 0 789 -19z m6295 -236
l-260 -254 -602 -1 c-332 0 -603 2 -603 4 0 3 14 42 31 88 36 97 109 362 109
395 l0 23 793 0 792 0 -260 -255z"/>
<path d="M5948 8480 c-431 -76 -822 -286 -1125 -603 -231 -242 -420 -583 -504
-910 -55 -214 -62 -273 -65 -512 -1 -126 2 -257 6 -290 5 -33 12 -80 16 -105
24 -186 121 -475 221 -660 282 -525 767 -900 1338 -1035 141 -33 351 -57 449
-51 44 3 124 8 177 11 321 19 704 167 999 386 110 81 282 249 379 370 238 294
397 679 446 1079 67 549 -86 1111 -425 1561 -137 182 -375 390 -587 516 -214
125 -465 214 -706 248 -151 22 -482 19 -619 -5z m-487 -1232 c74 -67 251 -230
394 -363 143 -133 295 -274 338 -314 43 -40 82 -71 87 -69 4 2 122 109 261
239 140 129 350 324 467 432 l214 197 211 -2 212 -3 0 -935 0 -934 -245 -138
c-135 -75 -248 -137 -252 -138 -5 0 -8 327 -8 726 l0 726 -52 -43 c-29 -24
-109 -91 -178 -150 -69 -59 -239 -204 -379 -322 l-254 -216 -56 47 c-31 26
-159 135 -286 243 -388 329 -520 439 -528 439 -4 0 -7 -325 -7 -722 1 -498 -3
-722 -10 -720 -6 1 -65 33 -133 70 -67 38 -175 97 -239 132 l-118 64 0 932 c0
512 3 934 7 937 3 4 99 7 213 7 l207 0 134 -122z"/>
</g>
</svg>
